<?xml version="1.0" standalone="no"?>
<!DOCTYPE svg PUBLIC "-//W3C//DTD SVG 20010904//EN"
 "http://www.w3.org/TR/2001/REC-SVG-20010904/DTD/svg10.dtd">
<svg version="1.0" xmlns="http://www.w3.org/2000/svg"
 width="512.000000pt" height="512.000000pt" viewBox="0 0 512.000000 512.000000"
 preserveAspectRatio="xMidYMid meet">
<metadata>
Created by potrace 1.11, written by Peter Selinger 2001-2013
</metadata>
<g transform="translate(0.000000,512.000000) scale(0.100000,-0.100000)"
fill="#000000" stroke="none">
<path d="M2380 5100 c-105 -8 -224 -24 -285 -39 -58 -15 -135 -31 -174 -36
-43 -7 -133 -35 -145 -46 -6 -5 -17 -9 -25 -9 -9 0 -29 -7 -44 -15 -16 -8 -47
-20 -70 -26 -23 -6 -88 -33 -144 -60 -55 -27 -104 -49 -107 -49 -9 0 -109 -62
-124 -77 -7 -7 -19 -13 -25 -13 -7 0 -44 -23 -82 -50 -39 -28 -79 -54 -90 -59
-11 -5 -37 -25 -58 -44 -20 -19 -49 -43 -65 -52 -56 -36 -311 -291 -347 -347
-9 -16 -33 -45 -52 -65 -19 -21 -39 -47 -44 -58 -5 -11 -31 -51 -59 -90 -27
-38 -50 -75 -50 -82 0 -6 -6 -18 -13 -25 -13 -14 -77 -116 -77 -124 0 -2 -22
-51 -49 -107 -27 -56 -52 -113 -56 -127 -7 -25 -41 -118 -56 -155 -17 -40 -38
-111 -44 -145 -3 -19 -12 -69 -21 -110 -9 -41 -18 -84 -20 -95 -33 -175 -47
-398 -34 -573 10 -144 19 -209 49 -357 36 -177 55 -252 77 -294 8 -14 14 -34
14 -43 0 -9 4 -19 9 -22 4 -3 16 -34 26 -68 9 -35 32 -90 50 -123 17 -33 38
-76 45 -95 7 -19 32 -64 55 -100 23 -36 47 -78 53 -94 7 -15 33 -54 57 -86 25
-32 45 -62 45 -67 0 -4 19 -28 41 -53 23 -25 49 -56 57 -70 18 -28 46 -59 170
-182 142 -142 156 -155 181 -168 14 -7 40 -28 59 -46 19 -19 55 -46 81 -61 25
-14 50 -30 56 -35 5 -4 24 -18 40 -31 17 -14 40 -28 53 -31 13 -4 50 -25 82
-47 32 -21 80 -47 107 -58 26 -11 80 -35 119 -55 40 -19 88 -38 108 -41 20 -4
39 -11 42 -16 3 -5 13 -9 22 -9 9 0 29 -6 44 -14 15 -8 42 -17 60 -21 18 -4
38 -11 43 -16 17 -13 287 -59 470 -80 161 -19 250 -19 445 -3 96 8 450 72 465
83 5 5 25 12 43 16 18 4 45 13 60 21 15 8 32 14 38 14 7 0 25 7 40 15 16 8 37
15 48 15 10 0 55 18 100 41 44 23 98 47 118 54 21 8 65 32 98 54 34 23 71 44
84 47 12 3 36 16 52 29 16 14 34 28 39 33 6 4 28 19 50 32 44 27 68 45 100 75
11 11 34 29 50 39 60 39 312 290 350 349 10 16 31 42 47 59 16 17 49 63 74
100 24 38 53 79 64 91 11 11 20 27 20 35 0 8 21 46 46 84 25 38 52 87 59 109
8 22 21 52 29 67 41 78 66 134 66 149 0 10 7 31 15 47 8 15 15 33 15 40 0 6 6
23 14 38 8 15 17 42 21 60 4 18 11 38 16 43 14 19 60 295 82 492 l20 191 -20
199 c-22 209 -68 481 -84 498 -5 5 -9 18 -9 30 0 11 -7 33 -15 49 -8 15 -15
33 -15 40 0 6 -7 24 -15 39 -13 26 -31 98 -26 106 2 2 -1 7 -7 10 -10 7 -92
172 -92 186 0 6 -20 40 -43 76 -24 36 -47 74 -51 84 -11 30 -136 213 -165 243
-14 15 -35 41 -45 57 -20 33 -34 47 -164 177 -123 124 -153 152 -182 170 -14
8 -45 34 -70 57 -25 22 -49 41 -53 41 -5 0 -35 20 -67 45 -32 24 -71 50 -86
57 -16 6 -59 31 -95 55 -37 24 -70 43 -75 43 -4 0 -53 22 -109 49 -55 27 -122
55 -148 62 -26 6 -50 15 -53 20 -3 5 -12 9 -21 9 -8 0 -29 6 -46 14 -49 22
-98 38 -142 46 -46 9 -178 36 -215 45 -155 35 -404 49 -610 35z m300 -466 c36
-14 74 -17 184 -15 77 1 162 -3 190 -9 89 -20 160 -42 197 -61 20 -11 42 -19
49 -19 7 0 49 -22 92 -50 43 -27 82 -50 87 -50 4 0 33 -22 64 -49 31 -27 65
-52 76 -56 11 -3 23 -14 26 -24 3 -9 25 -32 49 -50 24 -18 48 -42 52 -52 5
-10 26 -38 47 -61 74 -83 119 -142 135 -175 9 -18 19 -33 23 -33 4 0 18 -17
30 -37 13 -21 27 -42 32 -48 16 -19 57 -90 86 -150 39 -81 65 -242 51 -317 -6
-30 -14 -203 -18 -385 l-8 -330 -45 -63 -44 -63 -3 56 -3 57 -34 0 c-46 0 -55
-19 -57 -132 l-1 -93 -7 115 c-8 117 -33 234 -70 317 -11 25 -20 51 -20 59 0
23 -104 131 -170 176 -81 55 -115 67 -210 75 -55 4 -81 11 -97 25 -22 20 -22
20 -16 -1 5 -21 5 -21 -239 -21 l-244 0 -12 33 c-15 42 -88 87 -141 87 -28 0
-50 -9 -85 -35 -25 -20 -46 -40 -46 -45 0 -18 -19 -10 -25 10 -4 11 -23 29
-44 40 -21 10 -49 34 -64 52 -67 86 -92 108 -115 102 -37 -10 -38 -48 -3 -93
31 -39 39 -61 22 -61 -4 0 -30 20 -57 45 -26 25 -51 45 -55 45 -4 0 -21 17
-38 38 -16 20 -55 68 -86 106 -30 37 -67 88 -81 112 -14 24 -29 44 -34 44 -4
0 -17 23 -28 51 -20 47 -23 50 -54 47 -48 -4 -50 -46 -4 -122 19 -31 38 -76
41 -99 11 -67 45 -155 97 -254 26 -51 48 -94 48 -97 0 -3 -23 -5 -51 -4 -49 0
-53 2 -113 63 -91 93 -131 149 -161 229 -35 90 -42 98 -79 94 -30 -3 -31 -4
-28 -48 6 -79 75 -203 157 -281 27 -26 47 -50 44 -53 -11 -12 -164 101 -196
144 -78 106 -103 189 -103 337 0 79 -1 83 -24 89 -62 15 -61 18 -64 -201 -3
-178 7 -314 26 -363 11 -30 -18 -1 -54 53 -44 67 -69 133 -79 205 -4 30 -12
61 -17 68 -15 17 -65 15 -72 -3 -5 -15 -1 -115 9 -212 4 -37 2 -43 -15 -43
-34 0 -44 -35 -27 -94 8 -28 20 -76 26 -106 7 -30 22 -81 33 -112 l20 -58 -20
-42 c-25 -55 -47 -183 -57 -343 -3 -44 -8 -100 -11 -125 l-6 -45 -15 35 c-8
19 -25 67 -38 107 -12 40 -38 94 -58 120 -44 61 -46 68 -51 233 -2 74 -13 187
-24 250 -32 177 -44 343 -33 425 30 206 150 438 316 611 186 193 348 275 545
276 l94 1 71 59 c106 89 311 198 400 212 55 8 189 -3 235 -20z m-562 -1266
c11 -13 26 -27 32 -33 6 -5 18 -19 28 -30 9 -11 38 -37 65 -58 63 -51 61 -87
-4 -87 -19 0 -50 29 -73 68 -14 24 -80 145 -84 155 -8 15 15 6 36 -15z m-418
-198 c0 -5 -15 -10 -34 -10 -19 0 -41 -3 -50 -6 -16 -6 -27 26 -41 113 l-7 42
66 -64 c36 -36 66 -69 66 -75z m766 -15 c4 -8 3 -26 0 -40 -6 -25 -27 -32 -60
-19 -19 7 -22 60 -3 67 25 11 58 6 63 -8z m284 -19 c0 -54 -63 -62 -76 -9 -8
29 7 43 49 43 24 0 27 -4 27 -34z m-1297 -24 c11 -15 19 -31 19 -35 -1 -12
-83 -99 -88 -94 -3 2 -7 20 -10 38 -5 29 -2 36 18 44 19 8 23 17 21 47 -3 43
12 43 40 0z m135 -214 c14 -14 16 -45 4 -50 -5 -1 -26 -31 -47 -66 -44 -72
-57 -151 -35 -217 11 -34 10 -39 -9 -58 -20 -20 -21 -20 -41 -2 -48 44 -50
167 -4 277 40 98 99 149 132 116z m-524 -350 c21 -30 20 -48 -3 -48 -11 0 -23
-5 -27 -11 -8 -14 14 -29 44 -29 18 0 27 -11 43 -47 48 -112 57 -156 63 -313
3 -85 10 -193 15 -240 5 -47 7 -87 4 -90 -9 -9 -32 32 -59 104 -70 186 -70
186 -122 271 -28 46 -34 76 -39 180 -6 115 8 223 30 237 20 13 35 9 51 -14z
m3130 0 c26 -43 38 -157 26 -249 -6 -46 -17 -95 -25 -109 -57 -107 -117 -241
-140 -311 -25 -77 -57 -131 -70 -118 -8 8 15 209 26 230 5 10 9 57 9 106 0
110 21 242 50 310 19 45 26 52 54 55 36 4 52 38 17 38 -25 0 -25 2 -6 40 18
36 39 38 59 8z m-1556 -315 c3 -27 -1 -35 -21 -44 -35 -16 -67 3 -67 40 0 37
7 43 50 39 31 -3 35 -6 38 -35z m-1280 -136 c35 -77 138 -189 196 -214 37 -16
80 -18 409 -21 304 -3 367 -5 367 -17 0 -8 -5 -17 -10 -20 -21 -13 -41 -80
-35 -115 9 -46 59 -98 104 -106 20 -4 47 -12 61 -19 14 -7 51 -18 83 -26 69
-15 174 0 219 32 15 11 44 19 65 19 33 0 42 5 63 37 33 49 34 119 2 162 -17
23 -19 32 -10 35 7 3 177 7 378 10 421 7 459 12 522 72 22 22 51 63 64 92 13
28 28 52 34 52 5 0 10 -20 10 -45 0 -40 3 -47 26 -55 22 -9 25 -14 19 -38 -3
-15 -10 -133 -14 -262 l-8 -235 -42 -97 c-46 -104 -138 -225 -191 -253 -17 -9
-30 -20 -30 -25 0 -5 -38 -34 -85 -65 -46 -30 -93 -64 -102 -74 -10 -10 -36
-28 -58 -39 -22 -12 -53 -35 -70 -53 -16 -17 -42 -37 -57 -45 -16 -8 -28 -18
-28 -23 0 -5 -33 -33 -72 -64 -40 -30 -82 -63 -93 -74 -11 -10 -36 -29 -56
-41 -19 -12 -47 -32 -61 -45 -14 -13 -77 -43 -139 -67 -107 -41 -120 -43 -219
-44 -101 0 -109 1 -215 43 -60 24 -124 55 -142 70 -17 14 -63 49 -103 76 -108
76 -132 94 -170 125 -48 40 -89 69 -200 143 -52 35 -101 71 -109 80 -7 9 -19
17 -26 17 -19 0 -175 132 -215 182 -20 23 -58 86 -85 138 l-50 95 -1 204 c-1
112 -5 241 -9 286 -6 76 -5 83 13 87 17 5 21 18 27 97 4 50 8 91 10 91 2 0 16
-28 33 -63z m1440 -252 c6 -2 12 -13 12 -23 0 -11 7 -25 15 -32 20 -17 29 -74
16 -99 -9 -16 -21 -21 -52 -21 -22 0 -52 -8 -66 -17 -37 -25 -92 -43 -129 -43
-37 0 -112 25 -134 45 -8 7 -33 15 -55 17 l-40 3 2 55 c1 30 4 71 8 90 l7 35
201 -3 c111 -1 208 -5 215 -7z"/>
<path d="M2490 4556 c0 -9 30 -14 35 -6 4 6 -3 10 -14 10 -12 0 -21 -2 -21 -4z"/>
<path d="M2585 4550 c-3 -5 1 -10 10 -10 9 0 13 5 10 10 -3 6 -8 10 -10 10 -2
0 -7 -4 -10 -10z"/>
<path d="M2293 4509 c14 -8 22 -8 30 0 8 8 3 11 -18 11 -26 -1 -28 -2 -12 -11z"/>
<path d="M2190 4450 c0 -5 7 -7 15 -4 8 4 15 8 15 10 0 2 -7 4 -15 4 -8 0 -15
-4 -15 -10z"/>
<path d="M3060 4426 c0 -2 11 -6 25 -8 13 -3 22 -1 19 3 -5 9 -44 13 -44 5z"/>
<path d="M2110 4400 c-8 -5 -12 -12 -9 -15 8 -8 39 5 39 16 0 11 -11 11 -30
-1z"/>
<path d="M2156 4332 c-3 -5 8 -6 25 -4 16 2 29 6 29 8 0 8 -49 4 -54 -4z"/>
<path d="M1820 4290 c0 -5 7 -10 15 -10 8 0 15 5 15 10 0 6 -7 10 -15 10 -8 0
-15 -4 -15 -10z"/>
<path d="M1730 4281 c0 -5 9 -7 20 -4 11 3 20 7 20 9 0 2 -9 4 -20 4 -11 0
-20 -4 -20 -9z"/>
<path d="M3392 4242 c10 -4 33 -22 53 -40 19 -19 35 -29 35 -24 0 15 -72 72
-90 71 -12 0 -11 -2 2 -7z"/>
<path d="M1580 4220 c-13 -8 -12 -10 3 -10 9 0 17 5 17 10 0 12 -1 12 -20 0z"/>
<path d="M1545 4190 c-3 -5 -1 -10 4 -10 6 0 11 5 11 10 0 6 -2 10 -4 10 -3 0
-8 -4 -11 -10z"/>
<path d="M3520 4140 c0 -5 5 -10 11 -10 5 0 7 5 4 10 -3 6 -8 10 -11 10 -2 0
-4 -4 -4 -10z"/>
<path d="M3550 4116 c0 -2 7 -9 15 -16 12 -10 15 -10 15 4 0 9 -7 16 -15 16
-8 0 -15 -2 -15 -4z"/>
<path d="M3610 4062 c0 -12 19 -26 26 -19 2 2 -2 10 -11 17 -9 8 -15 8 -15 2z"/>
<path d="M2680 4050 c0 -5 5 -10 10 -10 6 0 10 5 10 10 0 6 -4 10 -10 10 -5 0
-10 -4 -10 -10z"/>
<path d="M2868 4043 c12 -2 30 -2 40 0 9 3 -1 5 -23 4 -22 0 -30 -2 -17 -4z"/>
<path d="M2968 4033 c7 -3 16 -2 19 1 4 3 -2 6 -13 5 -11 0 -14 -3 -6 -6z"/>
<path d="M3015 4020 c3 -5 16 -10 28 -10 18 0 19 2 7 10 -20 13 -43 13 -35 0z"/>
<path d="M3650 4025 c0 -18 19 -40 26 -32 4 4 0 15 -9 24 -9 10 -17 13 -17 8z"/>
<path d="M3070 3996 c0 -2 7 -6 15 -10 8 -3 15 -1 15 4 0 6 -7 10 -15 10 -8 0
-15 -2 -15 -4z"/>
<path d="M3407 3976 c10 -13 19 -23 21 -21 5 5 -22 45 -31 45 -4 0 0 -11 10
-24z"/>
<path d="M3690 3971 c0 -5 5 -13 10 -16 6 -3 10 -2 10 4 0 5 -4 13 -10 16 -5
3 -10 2 -10 -4z"/>
<path d="M3481 3885 c41 -55 70 -75 48 -33 -11 20 -77 88 -86 88 -2 0 15 -25
38 -55z"/>
<path d="M3730 3930 c0 -5 5 -10 11 -10 5 0 7 5 4 10 -3 6 -8 10 -11 10 -2 0
-4 -4 -4 -10z"/>
<path d="M3750 3901 c0 -4 9 -16 19 -25 19 -17 19 -17 14 2 -5 20 -33 39 -33
23z"/>
<path d="M2460 3870 c0 -5 10 -10 23 -10 18 0 19 2 7 10 -19 13 -30 13 -30 0z"/>
<path d="M2545 3850 c-3 -5 3 -10 15 -10 12 0 18 5 15 10 -3 6 -10 10 -15 10
-5 0 -12 -4 -15 -10z"/>
<path d="M2635 3840 c-17 -7 -14 -9 13 -9 20 -1 31 3 27 9 -7 12 -13 12 -40 0z"/>
<path d="M3795 3841 c-6 -11 9 -23 19 -14 9 9 7 23 -3 23 -6 0 -12 -4 -16 -9z"/>
<path d="M2732 3825 c3 -3 43 -8 89 -10 57 -4 77 -2 64 4 -21 10 -162 15 -153
6z"/>
<path d="M2910 3811 c0 -6 10 -13 23 -15 12 -3 36 -7 52 -11 17 -3 35 -7 40
-8 6 -1 12 2 15 8 3 5 -13 13 -35 18 -22 4 -52 10 -67 14 -17 3 -28 1 -28 -6z"/>
<path d="M3540 3813 c0 -5 7 -18 15 -29 15 -18 15 -18 13 5 -3 23 -28 44 -28
24z"/>
<path d="M3085 3760 c3 -5 11 -10 16 -10 6 0 7 5 4 10 -3 6 -11 10 -16 10 -6
0 -7 -4 -4 -10z"/>
<path d="M3842 3750 c0 -14 2 -19 5 -12 2 6 2 18 0 25 -3 6 -5 1 -5 -13z"/>
<path d="M3590 3745 c7 -8 17 -15 22 -15 6 0 5 7 -2 15 -7 8 -17 15 -22 15 -6
0 -5 -7 2 -15z"/>
<path d="M3159 3727 c7 -9 19 -17 26 -17 7 0 18 -7 25 -16 19 -22 50 -37 50
-24 0 10 -66 55 -98 67 -15 6 -15 5 -3 -10z"/>
<path d="M3865 3703 c5 -10 13 -36 20 -58 6 -22 17 -51 23 -65 11 -25 11 -25
11 8 1 17 -8 49 -19 69 -11 21 -20 43 -20 50 0 7 -5 13 -11 13 -7 0 -8 -7 -4
-17z"/>
<path d="M3641 3684 c0 -11 3 -14 6 -6 3 7 2 16 -1 19 -3 4 -6 -2 -5 -13z"/>
<path d="M3290 3651 c0 -6 5 -13 10 -16 6 -3 10 1 10 9 0 9 -4 16 -10 16 -5 0
-10 -4 -10 -9z"/>
<path d="M3680 3621 c0 -11 5 -23 10 -26 6 -3 10 3 10 14 0 11 -4 23 -10 26
-5 3 -10 -3 -10 -14z"/>
<path d="M3343 3593 c21 -37 52 -73 62 -73 11 0 3 17 -20 42 -14 15 -25 30
-25 33 0 8 -27 35 -34 35 -3 0 5 -17 17 -37z"/>
<path d="M3720 3556 c0 -9 5 -16 10 -16 6 0 10 4 10 9 0 6 -4 13 -10 16 -5 3
-10 -1 -10 -9z"/>
<path d="M3410 3488 c0 -18 18 -34 28 -24 3 4 -2 14 -11 23 -16 16 -17 16 -17
1z"/>
<path d="M3755 3463 c3 -15 10 -30 13 -33 10 -7 33 -69 39 -103 6 -31 23 -47
23 -20 0 24 -30 104 -47 124 -7 8 -13 25 -13 37 0 12 -5 22 -11 22 -7 0 -9
-10 -4 -27z"/>
<path d="M3160 3434 c0 -3 9 -17 20 -31 21 -27 27 -15 10 18 -10 18 -30 27
-30 13z"/>
<path d="M3210 3366 c0 -8 7 -16 15 -20 8 -3 20 -17 25 -31 10 -27 30 -34 30
-11 0 8 -7 16 -15 20 -8 3 -20 17 -27 31 -12 27 -28 33 -28 11z"/>
<path d="M3290 3267 c0 -15 27 -43 34 -36 3 2 -4 15 -15 28 -13 16 -19 18 -19
8z"/>
<path d="M3832 3230 c0 -19 2 -27 5 -17 2 9 2 25 0 35 -3 9 -5 1 -5 -18z"/>
<path d="M3831 3134 c0 -11 3 -14 6 -6 3 7 2 16 -1 19 -3 4 -6 -2 -5 -13z"/>
<path d="M1240 2910 c0 -11 5 -20 10 -20 6 0 10 9 10 20 0 11 -4 20 -10 20 -5
0 -10 -9 -10 -20z"/>
<path d="M4060 2824 c0 -14 3 -14 15 -4 8 7 15 14 15 16 0 2 -7 4 -15 4 -8 0
-15 -7 -15 -16z"/>
<path d="M1140 2691 c0 -12 5 -21 10 -21 6 0 10 6 10 14 0 8 -4 18 -10 21 -5
3 -10 -3 -10 -14z"/>
<path d="M2964 1406 c-3 -7 -4 -19 -2 -26 4 -19 -35 -28 -132 -29 -47 -1 -114
-6 -150 -12 -46 -7 -93 -7 -160 0 -52 6 -128 13 -169 16 -85 6 -91 9 -91 36 0
24 -11 24 -60 -1 -38 -19 -40 -23 -40 -66 0 -42 2 -46 20 -41 24 6 34 -14 86
-173 46 -139 91 -205 154 -224 96 -29 166 -38 230 -32 61 6 160 32 187 49 25
16 103 179 119 249 8 32 23 77 34 98 18 35 24 39 45 34 24 -6 25 -4 25 39 0
40 -4 47 -38 71 -43 30 -51 31 -58 12z m-31 -142 c-8 -12 -22 -26 -31 -30 -23
-11 -438 -18 -530 -9 -70 6 -102 22 -102 48 0 9 86 12 339 12 l339 1 -15 -22z
m-143 -311 c0 -1 -14 -10 -32 -19 -63 -33 -262 -27 -312 9 -13 10 21 12 164
12 99 0 180 -1 180 -2z"/>
<path d="M2426 791 c-3 -5 8 -20 26 -33 30 -21 43 -23 155 -23 107 0 125 2
149 20 28 21 30 42 4 37 -8 -1 -40 -7 -70 -12 -51 -9 -204 1 -243 16 -8 3 -18
1 -21 -5z"/>
</g>
</svg>
